<svg width="33" height="32" viewBox="0 0 33 32" fill="none" xmlns="http://www.w3.org/2000/svg">
<path d="M13.9788 3.63133C16.2628 1.56871 19.7372 1.56871 22.0212 3.63133L28.7193 9.67986C29.6552 10.5251 30.3011 11.6437 30.5651 12.8769L32.4543 21.7018C33.0985 24.7112 31.3613 27.7201 28.433 28.6668L19.8458 31.4432C18.6459 31.8312 17.3541 31.8312 16.1542 31.4432L7.56699 28.6668C4.63867 27.7201 2.90151 24.7112 3.54574 21.7018L5.43492 12.8769C5.69892 11.6437 6.34477 10.5251 7.28074 9.67987L13.9788 3.63133Z" fill="#FFB700"/>
<path d="M13.9788 3.63133C16.2628 1.56871 19.7372 1.56871 22.0212 3.63133L28.7193 9.67986C29.6552 10.5251 30.3011 11.6437 30.5651 12.8769L32.4543 21.7018C33.0985 24.7112 31.3613 27.7201 28.433 28.6668L19.8458 31.4432C18.6459 31.8312 17.3541 31.8312 16.1542 31.4432L7.56699 28.6668C4.63867 27.7201 2.90151 24.7112 3.54574 21.7018L5.43492 12.8769C5.69892 11.6437 6.34477 10.5251 7.28074 9.67987L13.9788 3.63133Z" fill="white" fill-opacity="0.6"/>
</svg>
