<svg width="33" height="31" viewBox="0 0 33 31" fill="none" xmlns="http://www.w3.org/2000/svg">
<path d="M14.0611 2.13526C15.8135 0.862037 18.1865 0.862035 19.9389 2.13526L30.229 9.61145C31.9815 10.8847 32.7148 13.1415 32.0454 15.2016L28.1149 27.2984C27.4455 29.3585 25.5258 30.7533 23.3596 30.7533H10.6404C8.47424 30.7533 6.55445 29.3585 5.88508 27.2984L1.95461 15.2016C1.28524 13.1415 2.01853 10.8847 3.77097 9.61146L14.0611 2.13526Z" fill="#F94545"/>
<path d="M14.0611 2.13526C15.8135 0.862037 18.1865 0.862035 19.9389 2.13526L30.229 9.61145C31.9815 10.8847 32.7148 13.1415 32.0454 15.2016L28.1149 27.2984C27.4455 29.3585 25.5258 30.7533 23.3596 30.7533H10.6404C8.47424 30.7533 6.55445 29.3585 5.88508 27.2984L1.95461 15.2016C1.28524 13.1415 2.01853 10.8847 3.77097 9.61146L14.0611 2.13526Z" fill="white" fill-opacity="0.4"/>
</svg>
