<svg width="33" height="33" viewBox="0 0 33 33" fill="none" xmlns="http://www.w3.org/2000/svg">
<path d="M14.8787 2.12132C16.0503 0.949748 17.9497 0.949747 19.1213 2.12132L31.8787 14.8787C33.0503 16.0503 33.0503 17.9497 31.8787 19.1213L19.1213 31.8787C17.9497 33.0503 16.0503 33.0503 14.8787 31.8787L2.12132 19.1213C0.949748 17.9497 0.949747 16.0503 2.12132 14.8787L14.8787 2.12132Z" fill="#FFB700"/>
<path d="M14.8787 2.12132C16.0503 0.949748 17.9497 0.949747 19.1213 2.12132L31.8787 14.8787C33.0503 16.0503 33.0503 17.9497 31.8787 19.1213L19.1213 31.8787C17.9497 33.0503 16.0503 33.0503 14.8787 31.8787L2.12132 19.1213C0.949748 17.9497 0.949747 16.0503 2.12132 14.8787L14.8787 2.12132Z" fill="white" fill-opacity="0.5"/>
</svg>
