<svg width="30" height="30" viewBox="0 0 30 30" fill="none" xmlns="http://www.w3.org/2000/svg">
<path d="M7.5 27.9904C9.86806 29.3576 12.5648 30.0515 15.2987 29.997C18.0325 29.9426 20.6995 29.1419 23.0113 27.6815C25.323 26.2211 27.1916 24.1565 28.415 21.7111C29.6384 19.2656 30.17 16.5322 29.9524 13.8065C29.7349 11.0808 28.7764 8.46636 27.1806 6.24592C25.5848 4.02548 23.4123 2.2835 20.8982 1.20829C18.3841 0.133086 15.6238 -0.234428 12.916 0.145481C10.2081 0.525389 7.65554 1.63827 5.53434 3.3638L15 15L7.5 27.9904Z" fill="#67B044"/>
<path d="M7.5 27.9904C9.86806 29.3576 12.5648 30.0515 15.2987 29.997C18.0325 29.9426 20.6995 29.1419 23.0113 27.6815C25.323 26.2211 27.1916 24.1565 28.415 21.7111C29.6384 19.2656 30.17 16.5322 29.9524 13.8065C29.7349 11.0808 28.7764 8.46636 27.1806 6.24592C25.5848 4.02548 23.4123 2.2835 20.8982 1.20829C18.3841 0.133086 15.6238 -0.234428 12.916 0.145481C10.2081 0.525389 7.65554 1.63827 5.53434 3.3638L15 15L7.5 27.9904Z" fill="white" fill-opacity="0.2"/>
</svg>
