<svg width="24" height="24" viewBox="0 0 24 24" fill="none" xmlns="http://www.w3.org/2000/svg">
<path d="M11.4521 5.26465C11.1414 5.26465 10.8896 5.51644 10.8896 5.82714V11.4521C10.8896 11.7628 11.1414 12.0145 11.4521 12.0145C11.7628 12.0145 12.0146 11.7628 12.0146 11.4521V5.82714C12.0146 5.51643 11.7628 5.26465 11.4521 5.26465Z" fill="#1A162E"/>
<path d="M9.20214 15.0146C8.89143 15.0146 8.63965 15.2664 8.63965 15.5771V18.9522C8.63965 19.2629 8.89144 19.5146 9.20214 19.5146C9.51284 19.5146 9.76463 19.2629 9.76463 18.9522V15.5771C9.76463 15.2664 9.51284 15.0146 9.20214 15.0146Z" fill="#1A162E"/>
<path d="M20.8271 20.2647H16.4262C16.718 19.8438 16.8897 19.3334 16.8897 18.7835V15.371C16.8897 14.0547 15.9088 12.964 14.6397 12.7897V5.26463C14.6397 3.81726 13.4621 2.63965 12.0147 2.63965C10.5674 2.63965 9.38975 3.81729 9.38975 5.26463V12.7897C8.12063 12.9639 7.13975 14.0547 7.13975 15.371V18.7835C7.13975 19.3334 7.31145 19.8438 7.6034 20.2647H3.20214C2.89143 20.2647 2.63965 20.5165 2.63965 20.8272C2.63965 21.1379 2.89144 21.3897 3.20214 21.3897H20.8271C21.1378 21.3897 21.3895 21.1379 21.3895 20.8272C21.3895 20.5165 21.1378 20.2647 20.8271 20.2647H20.8271ZM10.5146 5.26473C10.5146 4.43759 11.1875 3.76473 12.0146 3.76473C12.8418 3.76473 13.5146 4.43759 13.5146 5.26473V12.7647H10.5146V5.26473ZM9.74588 20.2647C8.92919 20.2647 8.26463 19.6002 8.26463 18.7835V15.371C8.26463 14.5543 8.92919 13.8898 9.74588 13.8898H14.2832C15.0999 13.8898 15.7645 14.5543 15.7645 15.371V18.7835C15.7645 19.6002 15.0999 20.2647 14.2832 20.2647H9.74588Z" fill="#1A162E"/>
</svg>
